<?xml version="1.0" standalone="no"?><!DOCTYPE svg PUBLIC "-//W3C//DTD SVG 1.1//EN" "http://www.w3.org/Graphics/SVG/1.1/DTD/svg11.dtd"><svg class="icon" width="200px" height="197.87px" viewBox="0 0 1035 1024" version="1.1" xmlns="http://www.w3.org/2000/svg"><path d="M385.761509 520.155633c-2.040637-2.981357-15.1094 4.023384-22.60621 4.463352-7.166834 0.439967 7.49681-14.611542 0-12.570905-10.36528 2.755584-43.006794 24.038998-52.599237 36.059943-19.850626 24.921827-24.481859 64.177322-9.705329 89.319132a63.777878 63.777878 0 0 0 6.339001 8.8225l1.823548 2.092739 4.298364 4.631234 1.487784 1.710662c3.14345 3.638413 4.964104 6.781863 4.139165 10.640259-2.648487 11.578084-27.735301 18.414943-41.738994 16.762172-20.953438-2.425609-42.456835-26.629594-59.548982-63.074509l-34.899241 33.411457 58.1133 80.11166 0.549959 0.882829a12.625901 12.625901 0 0 1 0.164987 12.845884l-0.549959 0.937825-47.693024 68.038613 41.46112 97.368795c80.554522 50.063637 174.892753 90.201961 266.469612 90.531936l-70.95629-59.546088-0.882829-0.549959a12.625901 12.625901 0 0 1-5.0191-11.855959l0.167882-0.99282 16.924265-79.338823-86.450661-51.994283-0.827833-0.549959a12.625901 12.625901 0 0 1-5.239083-11.028125l0.109992-1.047817 23.156168-162.098969c-4.298364-3.030564-25.526781-15.436481-21.66549-42.838912 1.099918-7.609696 10.362385-22.056251 27.897394-43.33677l1.87565-2.480605c4.851217-6.616875 7.719688-11.855958 5.404071-15.329383z m46.697308 83.970057c-9.922418 11.028125-22.438327 21.723381-35.50709 24.80894l-21.833372 152.616519 87.003514 52.379253 0.882829 0.549959c3.751299 2.758479 5.734046 7.279721 5.129092 11.855959l-0.164988 0.992821-16.982155 79.396713 94.280341 57.78043c23.929006-1.87565 119.645029-4.631234 238.517221-56.900496 14.003693-6.174013 41.241136-22.991181 81.602338-50.393612l-108.066945 11.193113-1.047816 0.219984a12.570905 12.570905 0 0 1-14.336563-10.36528l-0.164988-0.937825-10.970235-121.022821-153.496453 68.368588-0.940719 0.439967c-5.239083 1.820654-11.080227 0-14.333669-4.521242l-0.549959-0.882829-129.020383-215.578141z m-245.351185-95.663922l-16.982155 28.783118-0.549959 0.937824a12.570905 12.570905 0 0 1-10.148191 5.239084h-0.989926l-80.774506-5.789043-44.384586 102.65998a469.534738 469.534738 0 0 0 92.187602 177.20837c21.558393 25.801761 55.409817 71.564139 80.716615 91.191887L167.47699 818.658909l-0.384971-0.992821a12.625901 12.625901 0 0 1 1.102812-10.255288l0.549959-0.937825 46.535216-66.382946-59.326104-81.822322-0.549959-0.827833a12.625901 12.625901 0 0 1 1.2678-14.886522l0.772837-0.769943 49.95075-47.74802a401.056158 401.056158 0 0 1-20.290592-85.570727z m454.813204 16.3772l-100.897216 78.733868-0.937825 0.60785a12.515909 12.515909 0 0 1-15.439376-1.377792l-0.714946-0.827833-51.276441-57.783325c-4.521242 11.028125-11.028125 20.953438-17.590005 30.380894l-5.899034 8.434634 128.082558 214.148248 159.340491-71.01418 0.937825-0.387866a12.570905 12.570905 0 0 1 16.539294 9.812426l0.164987 0.94072 11.248109 123.888397 99.519424-24.643953c83.970057-74.600492 130.120301-144.676847 138.502834-210.399843l-71.34705 26.74248c-8.932492 3.858397-15.05151 4.133376-18.359947 0.937825l-80.496632-92.190496-109.832602 92.795451-0.824939 0.607849a12.515909 12.515909 0 0 1-18.032866-3.751299l-0.492069-0.879934-62.194574-124.774121z m-149.033102-191.704131a192.644851 192.644851 0 0 0-35.284212-9.43035l-4.356254-0.714947-4.246263-0.552853a210.729819 210.729819 0 0 0-4.191266-0.549959l-4.188372-0.387866-4.081275-0.27498a213.818273 213.818273 0 0 0-13.783709-0.549959l-3.748405 0.054996-3.696304 0.109992c-1.212804 0-2.425609 0.109992-3.583417 0.164988l-3.473425 0.164988-1.652771 0.164987-3.363434 0.27498-3.198446 0.33287-3.088454 0.329975-2.975567 0.439967-2.813475 0.442862-2.755584 0.494963-2.535601 0.497858-2.425608 0.549959-2.205625 0.549959a91.08479 91.08479 0 0 0-1.102813 0.277874l-2.040637 0.549959-1.87565 0.549959-1.652771 0.607849-1.600671 0.60785-1.322796 0.549959-1.157808 0.662845c-1.765658 0.937825-2.755584 1.872755-2.865576 2.700588-0.109992 1.377792 2.425609 2.813474 6.009026 4.301259l2.480604 0.99282 2.758479 0.992821 5.67905 2.037743c6.064022 2.260621 11.30021 4.576238 10.915239 7.004741-0.384971 2.645592-6.064022 4.023384-13.343742 4.961209l-3.308437 0.384971-3.305544 0.33287-13.893701 1.157809-3.198446 0.329975c-7.279721 0.772837-12.793783 1.87565-13.013766 4.023384-0.27498 2.095633 4.631234 4.576238 11.138117 7.004741l3.088454 1.099918 3.253442 1.157809 1.652771 0.552853 14.278673 4.576238 2.538495 0.882829 1.157808 0.384971 1.982747 0.772838c1.710662 0.714947 2.758479 1.2678 2.648487 1.652771-0.109992 0.607849-2.205625 0.607849-5.239083 0.387866l-2.480605-0.222878-8.654618-0.93493-4.524137-0.442862-2.865575-0.164988c-5.129091-0.329975-9.152476-0.109992-9.647439 1.432788-0.442862 1.322796 1.982747 3.418429 5.511168 5.67905l1.985641 1.267801 2.205626 1.215698 3.308437 1.872756 2.315617 1.157808 3.198446 1.655666 6.671871 3.305543 3.195551 1.655666 1.655666 0.827833 3.308438 1.872755 5.239083 3.033459 3.638413 2.205625 3.638413 2.315616 3.748405 2.480605 3.803401 2.590596 5.734046 4.081275 3.861291 2.923466 3.858397 2.975568c28.780223 22.881189 56.625516 55.134838 58.388279 90.864806l0.05789 3.08556 55.794789 62.964517 103.765686-80.881603 0.827833-0.607849a12.515909 12.515909 0 0 1 17.642106 4.023384l0.442862 0.882829 61.913806 124.221267 107.132014-90.421944 0.824939-0.717842a12.515909 12.515909 0 0 1 15.989334 1.267801l0.717842 0.772837 78.238905 89.652001 62.136684-74.322618c8.046769-21.173422 8.104659-59.106121 0.164987-113.855987-11.853064-82.042306-29.223085-127.969672-37.657719-144.783944l-19.352768 116.996542-0.329975 0.879934a12.570905 12.570905 0 0 1-18.139964 6.2869l-0.772837-0.549959-95.438149-67.543649-43.391766 76.088275-0.549959 0.882829a12.515909 12.515909 0 0 1-17.482907 3.250548l-0.769943-0.549959-88.824168-72.449863-24.14899 43.559648-0.549959 0.824938a12.515909 12.515909 0 0 1-19.022792 2.205625l-0.717842-0.714947-25.361793-28.28526c-17.147143 0.109992-30.323003-2.425609-39.530475-7.609696l-3.253442-1.817759-4.964103-2.978462-12.403023-7.49681-5.67905-3.363433-3.971283-2.260621-4.133377-2.260621a203.175119 203.175119 0 0 0-25.309692-11.635975z m-397.857712-9.870317l-20.345589 11.853064-22.056251 12.955876-15.656464 9.375354C13.980537 434.692004 2.952412 532.118689 17.838933 612.722417l40.306207-93.34541 0.439967-0.93493a12.570905 12.570905 0 0 1 11.028125-6.616876h0.937825l81.929419 5.899034 31.42871-53.317078a350.552554 350.552554 0 0 1 12.678003-103.102841l-45.484505 11.193113-1.099918 0.219984a12.515909 12.515909 0 0 1-10.148191-2.923467l-0.769942-0.769942-44.109607-45.762379h0.054996z m531.781414-170.093637c-56.51263 6.284005-74.872577 14.003693-115.450868 30.985848-13.068763 5.404071-26.357509 11.028125-39.863345 16.817167l-20.45558 8.819606-6.2869 2.373508-3.858397 1.487783-3.638413 1.432788-3.363433 1.377792-3.088454 1.322796-2.865576 1.325691-2.593491 1.212804a101.615057 101.615057 0 0 0-1.157808 0.549959l-2.205625 1.215699a26.852472 26.852472 0 0 0-7.001847 4.961209c-7.939671 9.094585-7.166834 26.68459-1.432788 36.277033 5.67905 9.372459 16.267209 11.910954 30.652978 12.570905l3.641308 0.109992 3.858397 0.109992h19.682743l5.074095 0.112886a192.534859 192.534859 0 0 1 71.62203 13.728714l3.638413 1.542779 3.693409 1.652772 3.638413 1.820654 3.641308 1.875649a154.952397 154.952397 0 0 1 10.640259 6.009026l3.473425 2.150629c22.60621 14.501551 43.721741 74.817581 47.583033 65.830093 2.5356-5.95403 10.142402-19.682743 22.826193-41.241136l0.549959-0.824938a12.515909 12.515909 0 0 1 17.532114-3.41843l0.827833 0.60785c53.317078 48.517962 82.98013 72.666952 88.989156 72.501964 5.95403-0.167882 20.290593-25.254696 42.838912-75.260443l0.552854-0.882829a12.458019 12.458019 0 0 1 16.759277-3.693409l0.827833 0.549959c58.006203 44.66246 88.824169 66.437942 92.572573 65.503012 3.751299-0.992821 7.994667-23.59903 12.683792-67.818629a464.793512 464.793512 0 0 0-37.825602-45.59739l-4.796221-4.851218-2.755584-2.645592-2.978462-2.758479-3.693409-3.308437-3.198446-2.81058-4.851217-4.136271-2.645593-2.205625-4.356254-3.473425-3.088454-2.425609-4.906213-3.803401-3.473426-2.5356-3.583417-2.648487-3.806295-2.700588-3.913392-2.755584a405.082437 405.082437 0 0 0-2.040638-1.325691l-4.13627-2.755584-4.298364-2.755584a403.869633 403.869633 0 0 0-4.41125-2.813474l-4.576238-2.81058a400.949061 400.949061 0 0 0-2.373507-1.380687l-4.793327-2.81058a394.882145 394.882145 0 0 0-9.928208-5.514063l-5.236188-2.755584c-26.739586-13.893701-62.19168-22.60621-93.782484-31.260827-5.571953-1.490678 19.12989-17.974976 12.513015-18.857805-8.104659-1.102813-25.086814-6.339001-81.599444 0zM221.789784 199.373228l-122.565601 24.591851-0.222878 0.27498c-20.012719 30.048023-49.345795 64.895163-62.301672 98.914469l28.725227-11.800962 25.529676-14.776531 0.93493-0.549959a12.515909 12.515909 0 0 1 13.563726 1.930646l0.772837 0.769943 45.872371 47.583032 53.42707-13.233751a384.554493 384.554493 0 0 1 31.758685-66.545039l-15.439375-67.158679h-0.054996z m19.627747-114.020974c-46.312337 28.945211-95.438149 62.139579-129.402459 105.58634l116.831554-18.634927 0.937825-0.167882a12.570905 12.570905 0 0 1 13.50873 8.712508l0.219983 0.937825 12.900881 56.017667c19.960617-27.01746 43.779631-51.276441 71.182062-70.794197l14.278673-66.437942-100.402253-15.274388-0.054996 0.05789z m347.741974 124.44125a12.570905 12.570905 0 1 1 0 25.196806 12.570905 12.570905 0 0 1 0-25.196806zM399.762307 20.40499c-41.46112 10.03241-120.307874 43.556753-122.898471 44.879549l81.877318 12.460913 0.937825 0.164988c6.284005 1.432788 10.475272 7.49681 9.647439 13.951592l-0.219984 0.989926-11.908059 55.742687a333.350415 333.350415 0 0 1 72.721947-27.347435l40.523296-53.70205-70.684205-47.14017z m385.011828 191.982005l30.325897 27.069561 0.714947 0.662846a12.625901 12.625901 0 0 1 0.549959 16.872163l-0.714947 0.824939-37.327744 37.327743c25.364688 0.717841 49.843653 2.865576 72.339871 6.064022l7.49681 1.102813 3.861291 0.549959 24.368973 4.026279 6.22901 0.937824 6.066916 0.937825 4.081274 0.549959 3.965494 0.497858 3.916287 0.439967 3.861292 0.387866 3.693408 0.329975 1.81776 0.109992 3.531315 0.164988c14.553652 0.607849 25.581777-1.099918 28.780224-7.884676 1.099918-2.257726-1.047817-7.606801-6.231904-14.50155l-1.54278-2.037743a95.386048 95.386048 0 0 0-2.700588-3.198446l-1.985642-2.205625-2.205625-2.257726a130.450276 130.450276 0 0 0-1.102812-1.157809l-2.425609-2.373507a149.253085 149.253085 0 0 0-2.593491-2.425609l-2.755584-2.425609a175.054846 175.054846 0 0 0-7.5547-6.231903l-3.305543-2.535601a232.120329 232.120329 0 0 0-64.070224-32.806502 462.752875 462.752875 0 0 0-69.083535-16.817167zM446.960368 10.69966c-4.301258 0.717841-8.654618 1.487784-12.90088 2.315617l61.421737 40.911161 0.769943 0.549959a12.625901 12.625901 0 0 1 2.865575 16.707176l-0.549959 0.827833-31.318718 41.46112c28.233159-4.741226 57.456244-7.166834 86.233573-7.829679l45.59739-45.652387-48.462966-43.171782a1158.453913 1158.453913 0 0 0-103.6528-6.119018z" fill="#364548" /></svg>